<?xml version="1.0" encoding="utf-8"?>
<!-- Generator: Adobe Illustrator 27.0.0, SVG Export Plug-In . SVG Version: 6.00 Build 0)  -->
<svg version="1.1" id="Layer_1" xmlns="http://www.w3.org/2000/svg" xmlns:xlink="http://www.w3.org/1999/xlink" x="0px" y="0px"
	 viewBox="0 0 199.5 145.6" style="enable-background:new 0 0 199.5 145.6;" xml:space="preserve">
<style type="text/css">
	.st0{fill:#F08443;}
	.st1{fill:#F5B445;}
	.st2{fill:none;stroke:#020202;stroke-width:0.7549;stroke-linejoin:round;stroke-miterlimit:10;}
	.st3{fill:#F3964F;}
	.st4{fill:#EA8046;}
	.st5{fill:#E04D53;}
	.st6{fill:#EB694C;}
	.st7{fill:#E53759;}
	.st8{fill:#EB8344;}
	.st9{fill:#EA7A47;}
	.st10{fill:#F68B4E;}
	.st11{fill:#F1BA46;}
	.st12{fill:#F2A848;}
</style>
<path class="st0" d="M199.4,0"/>
<g>
	<polyline class="st0" points="180.7,36.1 149.3,0 99.9,93.5 151.1,93.5 	"/>
	<polygon class="st1" points="199.5,0 149.3,0 180.7,36.1 	"/>
	<g>
		<path class="st2" d="M180.6,36.7"/>
	</g>
	<g>
		<polygon class="st3" points="99.9,93.5 151.1,93.5 180.7,36.1 		"/>
	</g>
	<g>
		<polygon class="st4" points="142.2,63.7 99.9,93.5 151.1,93.5 		"/>
	</g>
	<g>
		<polyline class="st5" points="149.3,0 99.9,93.5 142.2,63.7 149.3,0 		"/>
	</g>
</g>
<g>
	<g>
		<polygon class="st6" points="50,0 0,0 56.7,107.7 85.5,125.6 99.9,93.5 		"/>
		<polygon class="st6" points="127.6,145.6 85.5,125.6 76.6,145.5 		"/>
		<polygon class="st7" points="99.9,93.5 85.5,125.6 127.6,145.6 		"/>
	</g>
	<polygon class="st8" points="56.7,107.7 76.6,145.5 85.5,125.6 	"/>
	<g>
		<polygon class="st9" points="25.2,47.9 0,0 50,0 67.7,33.2 		"/>
	</g>
	<g>
		<polygon class="st10" points="0,0 50,0 67.7,33.2 		"/>
	</g>
	<g>
		<polygon class="st6" points="127.6,145.6 76.6,145.5 85.5,125.6 		"/>
	</g>
	<g>
		<polyline class="st11" points="0,0 50,0 44.5,21.8 		"/>
	</g>
	<g>
		<polyline class="st12" points="44.5,21.8 25.2,47.9 0,0 		"/>
	</g>
</g>
</svg>
