<?xml version="1.0" encoding="utf-8"?>
<!-- Generator: Adobe Illustrator 27.0.0, SVG Export Plug-In . SVG Version: 6.00 Build 0)  -->
<svg version="1.1" id="Layer_1" xmlns="http://www.w3.org/2000/svg"
	xmlns:xlink="http://www.w3.org/1999/xlink" x="0px" y="0px"
	viewBox="0 0 598.3 131.9" style="enable-background:new 0 0 598.3 131.9;" xml:space="preserve">
	 <style type="text/css">
		/* Original styles for logo colors */
		.st0{fill:#231F20;}
		.st1{fill:#F18643;}
		.st2{fill:#F6B546;}
		.st3{fill:none;stroke:#020202;stroke-width:0.7549;stroke-linejoin:round;stroke-miterlimit:10;}
		.st4{fill:#F3964F;}
		.st5{fill:#EB8148;}
		.st6{fill:#E24D53;}
		.st7{fill:#EC694D;}
		.st8{fill:#E53759;}
		.st9{fill:#EC8446;}
		.st10{fill:#EB7947;}
		.st11{fill:#F68D4D;}
		.st12{fill:#F3BB48;}
		.st13{fill:#F3A948;}
	</style>
<g>
	<polygon class="st0" points="263.4,10.9 243.3,64 221.7,10.9 199.4,10.9 242.5,109.4 285.5,10.9"/>
	<path class="st0" d="M325.2,54.9c-1.8-2.1-4.1-4-6.9-5.7c-2.8-1.9-7-2.8-12.5-2.8c-4.7,0-9.1,1.3-13.3,3.8
		c-4.2,2.5-7.6,6-10.1,10.6c-2.6,4.6-3.8,10.1-3.8,16.4c0,6.7,1.2,12.3,3.7,16.6c2.5,4.4,5.8,7.6,10,9.7c4.3,2,9,3.1,14.2,3.1
		c3.3,0,6.2-0.5,8.6-1.5c2.5-0.9,4.5-2,6.1-3.3c1.7-1.4,3-2.5,3.8-3.5c0-0.1,0.1-0.1,0.1-0.1v6.9H343v-56h-16.6L325.2,54.9z
		 M325.1,83.6c-0.9,1.9-2,3.5-3.3,4.7s-2.8,2.1-4.5,2.8c-1.7,0.6-3.6,0.9-5.8,0.9c-2.6,0-5.1-0.7-7.4-2c-2.2-1.4-4-3.2-5.4-5.6
		s-2-5.1-2-8.1s0.6-5.6,1.9-7.9s3-4.1,5.1-5.4c2.2-1.4,4.6-2,7.2-2c2.3,0,4.4,0.4,6.3,1.2c1.9,0.7,3.5,1.7,4.9,3.1
		c1.4,1.3,2.4,2.9,3.1,4.7v13.6H325.1z"/>
	<polygon class="st0" points="388.3,82.1 373.6,49.1 353.5,49.1 379.3,102.1 365.9,131.9 383.2,131.9 419.3,49.1 403.2,49.1 	"/>
	<path class="st0" d="M482.3,49.8c-4-2.3-8.4-3.5-13.3-3.5c-4.7,0-8.9,0.6-12.5,1.9c-3.7,1.3-6.6,2.9-8.8,4.7V4.1h-17.8v101h17.9
		v-5.7c2.1,1.9,4.4,3.6,6.9,4.9c3.2,1.5,7.2,2.3,11.9,2.3c5.1,0,9.9-1.2,14.3-3.7s8-6,10.6-10.6c2.7-4.6,4.1-10.1,4.1-16.4
		s-1.2-11.6-3.7-16C489.5,55.4,486.3,52.1,482.3,49.8z M475.4,83.8c-1.4,2.4-3.2,4.3-5.5,5.6c-2.2,1.4-4.7,2-7.3,2
		c-2.3,0-4.4-0.3-6.3-0.9c-1.9-0.7-3.5-1.6-5-2.8c-1.4-1.3-2.6-2.9-3.6-4.7V69.4c0.8-1.9,1.8-3.5,3.2-4.7c1.5-1.4,3.2-2.4,5.1-3.1
		c2-0.8,4.2-1.2,6.5-1.2c2.6,0,5.1,0.7,7.3,2c2.3,1.3,4.1,3.1,5.5,5.4s2,4.9,2,7.9C477.3,78.7,476.8,81.4,475.4,83.8z"/>
	<path class="st0" d="M557.3,53.5c-5.1-4.7-11.7-7-19.7-7c-6,0-11.4,1.4-16.3,4.1c-4.9,2.6-8.7,6.2-11.6,10.8
		c-2.9,4.5-4.4,9.6-4.4,15.2c0,5.9,1.2,11.1,3.7,15.6s6.1,8.1,10.8,10.6c4.8,2.6,10.6,3.8,17.4,3.8c3.1,0,6.3-0.5,9.7-1.5
		c3.5-1,6.7-2.4,9.7-4.1l-7.9-13.3c-1.8,1.1-3.6,2-5.5,2.7c-1.8,0.7-3.7,1-5.6,1c-2.7,0-5.2-0.6-7.4-1.8c-1.4-0.8-2.6-1.8-3.7-3
		l40.9-13C565.9,64.8,562.5,58.1,557.3,53.5z M524.5,67.6c1.1-2.3,2.6-4.1,4.6-5.2c2-1.3,4.4-1.9,7-1.9c3.5,0,6.1,0.9,7.8,2.6
		c1.7,1.5,2.9,3.3,3.6,5.4L523,76.6c0-0.4,0-0.7,0-1.1C523,72.4,523.5,69.8,524.5,67.6z"/>
	<rect x="580.4" y="4.1" class="st0" width="17.9" height="101"/>
</g>
<path class="st1" d="M159,0"/>
<g>
	<polyline class="st1" points="144.1,28.8 119.1,0 79.7,74.6 120.5,74.6"/>
	<polygon class="st2" points="159.1,0 119.1,0 144.1,28.8"/>
	<g>
		<path class="st3" d="M144,29.3"/>
	</g>
	<g>
		<polygon class="st4" points="79.7,74.6 120.5,74.6 144.1,28.8"/>
	</g>
	<g>
		<polygon class="st5" points="113.4,50.8 79.7,74.6 120.5,74.6"/>
	</g>
	<g>
		<polyline class="st6" points="119.1,0 79.7,74.6 113.4,50.8 119.1,0"/>
	</g>
</g>
<g>
	<g>
		<polygon class="st7" points="39.9,0 0,0 45.2,85.9 68.2,100.2 79.7,74.6"/>
		<polygon class="st7" points="101.8,116.1 68.2,100.2 61.1,116"/>
		<polygon class="st8" points="79.7,74.6 68.2,100.2 101.8,116.1"/>
	</g>
	<polygon class="st9" points="45.2,85.9 61.1,116 68.2,100.2 	"/>
	<g>
		<polygon class="st10" points="20.1,38.2 0,0 39.9,0 54,26.5"/>
	</g>
	<g>
		<polygon class="st11" points="0,0 39.9,0 54,26.5"/>
	</g>
	<g>
		<polygon class="st7" points="101.8,116.1 61.1,116 68.2,100.2"/>
	</g>
	<g>
		<polyline class="st12" points="0,0 39.9,0 35.5,17.4"/>
	</g>
	<g>
		<polyline class="st13" points="35.5,17.4 20.1,38.2 0,0"/>
	</g>
</g>
</svg>